<?xml version="1.0" encoding="UTF-8"?>
<svg id="Layer_2" data-name="Layer 2" xmlns="http://www.w3.org/2000/svg" viewBox="0 0 18.92 18.93">
  <defs>
    <style>
      .search-logo {
        fill: #fff;
      }
    </style>
  </defs>
  <g id="Layer_1-2" data-name="Layer 1">
    <path class="search-logo" d="m14.33,12.93c2.4-3.2,2.2-7.7-.7-10.6C10.52-.77,5.52-.77,2.32,2.32-.77,5.52-.77,10.63,2.32,13.72c2.9,2.9,7.5,3.1,10.6.6v.1l4.2,4.2c.5.4,1.1.4,1.5,0s.4-1,0-1.4l-4.3-4.3h0Zm-2.1-9.2c2.3,2.3,2.3,6.1,0,8.5-2.3,2.3-6.1,2.3-8.5,0-2.3-2.3-2.3-6.1,0-8.5,2.4-2.3,6.2-2.3,8.5,0Z"/>
  </g>
</svg>