<?xml version="1.0" encoding="UTF-8"?>
<svg id="Layer_2" data-name="Layer 2" xmlns="http://www.w3.org/2000/svg" xmlns:xlink="http://www.w3.org/1999/xlink" viewBox="0 0 99.8 62.7">
  <defs>
    <style>
      .cls-1 {
        fill: url(#linear-gradient);
      }

      .cls-2 {
        fill: #fff;
      }

      .cls-3 {
        mask: url(#mask-9);
      }

      .cls-3, .cls-4, .cls-5, .cls-6, .cls-7, .cls-8, .cls-9, .cls-10, .cls-11, .cls-12, .cls-13, .cls-14, .cls-15 {
        fill: none;
      }

      .cls-4 {
        mask: url(#mask-8);
      }

      .cls-5 {
        mask: url(#mask-2);
      }

      .cls-6 {
        mask: url(#mask-3);
      }

      .cls-7 {
        mask: url(#mask-6);
      }

      .cls-8 {
        mask: url(#mask-7);
      }

      .cls-9 {
        mask: url(#mask-4);
      }

      .cls-10 {
        mask: url(#mask-5);
      }

      .cls-11 {
        mask: url(#mask-1);
      }

      .cls-12 {
        mask: url(#mask-10);
      }

      .cls-13 {
        mask: url(#mask-11);
      }

      .cls-14 {
        mask: url(#mask-12);
      }

      .cls-15 {
        mask: url(#mask);
      }

      .cls-16 {
        fill: url(#linear-gradient-3);
      }

      .cls-17 {
        fill: url(#linear-gradient-2);
      }
    </style>
    <mask id="mask" x="-17.7" y="-17.6" width="133" height="97.2" maskUnits="userSpaceOnUse">
      <g id="mask0_17_2695" data-name="mask0 17 2695">
        <path class="cls-2" d="m115.3-17.6H-17.7v97.2H115.3V-17.6Z"/>
      </g>
    </mask>
    <mask id="mask-1" x="-17.7" y="-17.6" width="133" height="97.2" maskUnits="userSpaceOnUse">
      <g id="mask1_17_2695" data-name="mask1 17 2695">
        <path class="cls-2" d="m115.3-17.6H-17.7v97.2H115.3V-17.6Z"/>
      </g>
    </mask>
    <mask id="mask-2" x="-17.7" y="-17.6" width="133" height="97.2" maskUnits="userSpaceOnUse">
      <g id="mask2_17_2695" data-name="mask2 17 2695">
        <path class="cls-2" d="m115.3-17.6H-17.7v97.2H115.3V-17.6Z"/>
      </g>
    </mask>
    <mask id="mask-3" x="-17.7" y="-17.6" width="133" height="97.2" maskUnits="userSpaceOnUse">
      <g id="mask3_17_2695" data-name="mask3 17 2695">
        <path class="cls-2" d="m115.3-17.6H-17.7v97.2H115.3V-17.6Z"/>
      </g>
    </mask>
    <mask id="mask-4" x="-17.7" y="-17.6" width="133" height="97.2" maskUnits="userSpaceOnUse">
      <g id="mask4_17_2695" data-name="mask4 17 2695">
        <path class="cls-2" d="m115.3-17.6H-17.7v97.2H115.3V-17.6Z"/>
      </g>
    </mask>
    <mask id="mask-5" x="-17.7" y="-17.6" width="133" height="97.2" maskUnits="userSpaceOnUse">
      <g id="mask5_17_2695" data-name="mask5 17 2695">
        <path class="cls-2" d="m115.3-17.6H-17.7v97.2H115.3V-17.6Z"/>
      </g>
    </mask>
    <mask id="mask-6" x="-17.7" y="-17.6" width="133" height="97.2" maskUnits="userSpaceOnUse">
      <g id="mask6_17_2695" data-name="mask6 17 2695">
        <path class="cls-2" d="m115.3-17.6H-17.7v97.2H115.3V-17.6Z"/>
      </g>
    </mask>
    <mask id="mask-7" x="-17.7" y="-17.6" width="133" height="97.2" maskUnits="userSpaceOnUse">
      <g id="mask7_17_2695" data-name="mask7 17 2695">
        <path class="cls-2" d="m115.3-17.6H-17.7v97.2H115.3V-17.6Z"/>
      </g>
    </mask>
    <mask id="mask-8" x="11.3" y="0" width="67.2" height="45.9" maskUnits="userSpaceOnUse">
      <g id="mask8_17_2695" data-name="mask8 17 2695">
        <path class="cls-2" d="m12.3,42c-1,1.4-.9,2.6-.1,3.2.9.7,2.1.3,3.4-1.2,5.6-6.5,29.8-37.3,42.7-36.4,12.7.9,13.8,30.4,13.8,34.5,0,1.5.9,3.7,3.7,3.3,1.5-.3,2.7-1.5,2.7-3.4-.2-16.5-3.4-41.7-17.6-42h-.3C43.5,0,14.9,38.1,12.3,42Z"/>
      </g>
    </mask>
    <linearGradient id="linear-gradient" x1="11.58" y1="41.85" x2="78.48" y2="41.85" gradientTransform="translate(0 64.8) scale(1 -1)" gradientUnits="userSpaceOnUse">
      <stop offset="0" stop-color="#1acf10"/>
      <stop offset=".29" stop-color="#1acf10"/>
      <stop offset=".71" stop-color="#2bd604"/>
      <stop offset=".83" stop-color="#31d800"/>
      <stop offset="1" stop-color="#31d800"/>
    </linearGradient>
    <mask id="mask-9" x="-17.7" y="-17.6" width="133" height="97.2" maskUnits="userSpaceOnUse">
      <g id="mask9_17_2695" data-name="mask9 17 2695">
        <path class="cls-2" d="m115.3-17.6H-17.7v97.2H115.3V-17.6Z"/>
      </g>
    </mask>
    <mask id="mask-10" x="2" y="23.5" width="76.6" height="23.1" maskUnits="userSpaceOnUse">
      <g id="mask10_17_2695" data-name="mask10 17 2695">
        <path class="cls-2" d="m5,24.2c-1.3.3-2.9.8-2.9,2,0,1.5,1.9,1.6,3.9,1.5,11.7-.2,45,.5,66.7,16.9,2.5,1.9,5.9.5,5.9-2.6,0-2.5-3.8-4.2-6.8-5.9-16.5-9.6-42-12.6-56.8-12.6-4.6,0-8.1.3-10,.7Z"/>
      </g>
    </mask>
    <linearGradient id="linear-gradient-2" x1="2" y1="29.75" x2="78.5" y2="29.75" gradientTransform="translate(0 64.8) scale(1 -1)" gradientUnits="userSpaceOnUse">
      <stop offset="0" stop-color="#63e906"/>
      <stop offset=".45" stop-color="#63e906"/>
      <stop offset=".95" stop-color="#31d800"/>
      <stop offset="1" stop-color="#31d800"/>
    </linearGradient>
    <mask id="mask-11" x="-17.7" y="-17.6" width="133" height="97.2" maskUnits="userSpaceOnUse">
      <g id="mask11_17_2695" data-name="mask11 17 2695">
        <path class="cls-2" d="m115.3-17.6H-17.7v97.2H115.3V-17.6Z"/>
      </g>
    </mask>
    <mask id="mask-12" x="2" y="12.2" width="97.8" height="15.53" maskUnits="userSpaceOnUse">
      <g id="mask12_17_2695" data-name="mask12 17 2695">
        <path class="cls-2" d="m91.9,12.2c-24.5.5-52.8,3.8-87,12-1.3.3-2.9.8-2.9,2,0,1.5,1.9,1.6,3.9,1.5,10.4-.2,24.1-6.1,85.5-1.8,4.7.3,8.2-2.1,8.3-6.4.1-4.2-3-7.3-7.6-7.3h-.2Z"/>
      </g>
    </mask>
    <linearGradient id="linear-gradient-3" x1="2" y1="44.85" x2="99.68" y2="44.85" gradientTransform="translate(0 64.8) scale(1 -1)" gradientUnits="userSpaceOnUse">
      <stop offset="0" stop-color="#63e906"/>
      <stop offset=".4" stop-color="#63e906"/>
      <stop offset=".9" stop-color="#aff500"/>
      <stop offset="1" stop-color="#aff500"/>
    </linearGradient>
  </defs>
  <g id="Layer_1-2" data-name="Layer 1">
    <g class="cls-15">
      <g>
        <g class="cls-11">
          <path class="cls-2" d="m38,47.9v1.8h.1c.8-.7,1.7-1.3,2.6-1.6,1-.3,2.1-.5,3.3-.5,1.8,0,3.3.5,4.4,1.4s1.6,2.3,1.6,4.2v9h-5.6v-7.3c0-1.8-.9-2.7-2.8-2.7-1,0-1.8.3-2.5.8s-1,1.5-1,2.7v6.5h-5.6v-14.2h5.5v-.1Z"/>
        </g>
        <g class="cls-5">
          <path class="cls-2" d="m57.8,47.9v1.8h.1c.8-.7,1.7-1.3,2.6-1.6,1-.3,2.1-.5,3.3-.5,1.8,0,3.3.5,4.4,1.4s1.6,2.3,1.6,4.2v9h-5.5v-7.3c0-1.8-.9-2.7-2.8-2.7-1,0-1.8.3-2.5.8-.7.5-1,1.5-1,2.7v6.5h-5.7v-14.2h5.5v-.1Z"/>
        </g>
        <g class="cls-6">
          <path class="cls-2" d="m77.8,47.9h-5.6v14.2h5.6v-14.2Z"/>
        </g>
        <g class="cls-9">
          <path class="cls-2" d="m85.8,56.3c-3.2-.4-6.1-1.2-6.1-4.3,0-3.7,4.3-4.7,8.5-4.7,2.8,0,4.9.4,6.5,1.1s2.4,2,2.5,3.7h-6c0-.5-.3-.8-.8-1-.5-.2-1.2-.3-2.2-.3-.8,0-2.4.2-2.4,1,0,1.2,2.2,1.1,5.3,1.5,3.1.4,6.7,1.3,6.7,4.5,0,4.6-6,4.9-9.2,4.9-1.9,0-3.6-.1-4.9-.4-1.3-.3-2.3-.8-3.1-1.5-.8-.7-1.2-1.8-1.2-3.1h6.2c0,.6.3,1,.8,1.2s1.2.3,2.3.3c1.2,0,2.8-.2,2.8-1,0-1.4-2.5-1.4-5.7-1.9Z"/>
        </g>
        <g class="cls-10">
          <path class="cls-2" d="m30.9,55c0-2.5-.8-4.4-2.4-5.7-1.6-1.3-3.9-2-7.1-2s-5.5.7-7.1,2c-1.6,1.3-2.4,3.2-2.4,5.7s.8,4.4,2.4,5.7c1.6,1.3,3.9,2,7.1,2s5.7-.5,7-1.4c1.3-.9,2-2,2.2-3.3h-6.1c-.5.9-1.5,1.5-3.1,1.5-1.1,0-1.9-.2-2.5-.7-.6-.5-.9-1.4-1-2.3h12.9c0-.5.1-1,.1-1.5Zm-12.9-1.8c.2-.8.6-1.5,1.1-2,.6-.4,1.3-.6,2.3-.6s1.7.2,2.3.6c.6.4.9,1.1,1.1,2h-6.8Z"/>
        </g>
        <g class="cls-7">
          <path class="cls-2" d="m10.6,57.6c-1.9.2-2.8-.2-2.8-2v-4.3h3.5v-3.4h-3.5v-3.8H2.2v3.8H0v3.4h2.2v5.4c0,1.9.5,3.2,1.6,4.2,1.1.9,2.5,1.4,4.4,1.4,1.2,0,2.3-.2,3.3-.5l-.4-4.2c-.2-.1-.4,0-.5,0Z"/>
        </g>
      </g>
    </g>
    <g class="cls-8">
      <g class="cls-4">
        <path class="cls-1" d="m78.5,0H11.3v45.9h67.2V0Z"/>
      </g>
    </g>
    <g class="cls-3">
      <g class="cls-12">
        <path class="cls-17" d="m78.5,23.5H2v23.1h76.5v-23.1Z"/>
      </g>
    </g>
    <g class="cls-13">
      <g class="cls-14">
        <path class="cls-16" d="m99.8,12.2H2v15.5h97.8v-15.5Z"/>
      </g>
    </g>
  </g>
</svg>