<svg width="133" height="98" viewBox="0 0 133 98" fill="none" xmlns="http://www.w3.org/2000/svg">
<mask id="mask0_17_2695" style="mask-type:luminance" maskUnits="userSpaceOnUse" x="0" y="0" width="133" height="98">
<path d="M133 0H0V97.2H133V0Z" fill="white"/>
</mask>
<g mask="url(#mask0_17_2695)">
<mask id="mask1_17_2695" style="mask-type:luminance" maskUnits="userSpaceOnUse" x="0" y="0" width="133" height="98">
<path d="M133 0H0V97.2H133V0Z" fill="white"/>
</mask>
<g mask="url(#mask1_17_2695)">
<path d="M55.7 65.5V67.3H55.7999C56.5999 66.6 57.5 66 58.4 65.7C59.4 65.4 60.5 65.2 61.7 65.2C63.5 65.2 64.9999 65.7 66.0999 66.6C67.1999 67.5 67.7 68.9 67.7 70.8V79.8H62.0999V72.5C62.0999 70.7 61.1999 69.8 59.2999 69.8C58.2999 69.8 57.4999 70.1 56.7999 70.6C56.0999 71.1 55.7999 72.1 55.7999 73.3V79.8H50.2V65.6H55.7V65.5Z" fill="white"/>
</g>
<mask id="mask2_17_2695" style="mask-type:luminance" maskUnits="userSpaceOnUse" x="0" y="0" width="133" height="98">
<path d="M133 0H0V97.2H133V0Z" fill="white"/>
</mask>
<g mask="url(#mask2_17_2695)">
<path d="M75.5 65.5V67.3H75.6C76.4 66.6 77.3 66 78.2 65.7C79.2 65.4 80.3 65.2 81.5 65.2C83.3 65.2 84.8 65.7 85.9 66.6C87 67.5 87.5 68.9 87.5 70.8V79.8H82V72.5C82 70.7 81.1 69.8 79.2 69.8C78.2 69.8 77.4 70.1 76.7 70.6C76 71.1 75.7 72.1 75.7 73.3V79.8H70V65.6H75.5V65.5Z" fill="white"/>
</g>
<mask id="mask3_17_2695" style="mask-type:luminance" maskUnits="userSpaceOnUse" x="0" y="0" width="133" height="98">
<path d="M133 0H0V97.2H133V0Z" fill="white"/>
</mask>
<g mask="url(#mask3_17_2695)">
<path d="M95.4999 65.5H89.8999V79.7H95.4999V65.5Z" fill="white"/>
</g>
<mask id="mask4_17_2695" style="mask-type:luminance" maskUnits="userSpaceOnUse" x="0" y="0" width="133" height="98">
<path d="M133 0H0V97.2H133V0Z" fill="white"/>
</mask>
<g mask="url(#mask4_17_2695)">
<path d="M103.5 73.9C100.3 73.5 97.4001 72.7 97.4001 69.6C97.4001 65.9 101.7 64.9 105.9 64.9C108.7 64.9 110.8 65.3 112.4 66C114 66.7 114.8 68 114.9 69.7H108.9C108.9 69.2 108.6 68.9 108.1 68.7C107.6 68.5 106.9 68.4 105.9 68.4C105.1 68.4 103.5 68.6 103.5 69.4C103.5 70.6 105.7 70.5 108.8 70.9C111.9 71.3 115.5 72.2 115.5 75.4C115.5 80 109.5 80.3 106.3 80.3C104.4 80.3 102.7 80.2 101.4 79.9C100.1 79.6 99.1001 79.1 98.3001 78.4C97.5001 77.7 97.1001 76.6 97.1001 75.3H103.3C103.3 75.9 103.6 76.3 104.1 76.5C104.6 76.7 105.3 76.8 106.4 76.8C107.6 76.8 109.2 76.6 109.2 75.8C109.2 74.4 106.7 74.4 103.5 73.9Z" fill="white"/>
</g>
<mask id="mask5_17_2695" style="mask-type:luminance" maskUnits="userSpaceOnUse" x="0" y="0" width="133" height="98">
<path d="M133 0H0V97.2H133V0Z" fill="white"/>
</mask>
<g mask="url(#mask5_17_2695)">
<path d="M48.6001 72.6C48.6001 70.1 47.8001 68.2 46.2001 66.9C44.6001 65.6 42.3001 64.9 39.1001 64.9C35.9001 64.9 33.6001 65.6 32.0001 66.9C30.4001 68.2 29.6001 70.1 29.6001 72.6C29.6001 75.1 30.4001 77 32.0001 78.3C33.6001 79.6 35.9001 80.3 39.1001 80.3C42.4001 80.3 44.8001 79.8 46.1001 78.9C47.4001 78 48.1001 76.9 48.3001 75.6H42.2001C41.7001 76.5 40.7001 77.1 39.1001 77.1C38.0001 77.1 37.2001 76.9 36.6001 76.4C36.0001 75.9 35.7001 75 35.6001 74.1H48.5001C48.5001 73.6 48.6001 73.1 48.6001 72.6ZM35.7001 70.8C35.9001 70 36.3001 69.3 36.8001 68.8C37.4001 68.4 38.1001 68.2 39.1001 68.2C40.1001 68.2 40.8001 68.4 41.4001 68.8C42.0001 69.2 42.3001 69.9 42.5001 70.8H35.7001Z" fill="white"/>
</g>
<mask id="mask6_17_2695" style="mask-type:luminance" maskUnits="userSpaceOnUse" x="0" y="0" width="133" height="98">
<path d="M133 0H0V97.2H133V0Z" fill="white"/>
</mask>
<g mask="url(#mask6_17_2695)">
<path d="M28.2999 75.2C26.3999 75.4 25.4999 75 25.4999 73.2V68.9H28.9999V65.5H25.4999V61.7H19.9V65.5H17.7V68.9H19.9V74.3C19.9 76.2 20.3999 77.5 21.4999 78.5C22.5999 79.4 24 79.9 25.9 79.9C27.1 79.9 28.2 79.7 29.2 79.4L28.7999 75.2C28.5999 75.1 28.3999 75.2 28.2999 75.2Z" fill="white"/>
</g>
</g>
<mask id="mask7_17_2695" style="mask-type:luminance" maskUnits="userSpaceOnUse" x="0" y="0" width="133" height="98">
<path d="M133 0H0V97.2H133V0Z" fill="white"/>
</mask>
<g mask="url(#mask7_17_2695)">
<mask id="mask8_17_2695" style="mask-type:luminance" maskUnits="userSpaceOnUse" x="29" y="17" width="68" height="47">
<path d="M29.9999 59.6C28.9999 61 29.0999 62.2001 29.8999 62.8C30.7999 63.5 31.9999 63.1 33.2999 61.6C38.8999 55.1 63.0999 24.3 75.9999 25.2C88.6999 26.1 89.7999 55.6 89.7999 59.7C89.7999 61.2 90.6999 63.4 93.4999 63C94.9999 62.7 96.1999 61.5 96.1999 59.6C95.9999 43.1 92.7999 17.9 78.5999 17.6C78.4999 17.6 78.3999 17.6 78.2999 17.6C61.1999 17.6 32.5999 55.7 29.9999 59.6Z" fill="white"/>
</mask>
<g mask="url(#mask8_17_2695)">
<path d="M96.2 17.6H29V63.5H96.2V17.6Z" fill="url(#paint0_linear_17_2695)"/>
</g>
</g>
<mask id="mask9_17_2695" style="mask-type:luminance" maskUnits="userSpaceOnUse" x="0" y="0" width="133" height="98">
<path d="M133 0H0V97.2H133V0Z" fill="white"/>
</mask>
<g mask="url(#mask9_17_2695)">
<mask id="mask10_17_2695" style="mask-type:luminance" maskUnits="userSpaceOnUse" x="19" y="41" width="78" height="23">
<path d="M22.7001 41.8C21.4001 42.1 19.8 42.6 19.8 43.8C19.8 45.3 21.7001 45.4 23.7001 45.3C35.4001 45.1 68.7001 45.8 90.4001 62.2C92.9001 64.1 96.3 62.7 96.3 59.6C96.3 57.1 92.5001 55.4 89.5001 53.7C73.0001 44.1 47.5001 41.1 32.7001 41.1C28.1001 41.1 24.6001 41.4 22.7001 41.8Z" fill="white"/>
</mask>
<g mask="url(#mask10_17_2695)">
<path d="M96.2002 41.1H19.7002V64.2H96.2002V41.1Z" fill="url(#paint1_linear_17_2695)"/>
</g>
</g>
<mask id="mask11_17_2695" style="mask-type:luminance" maskUnits="userSpaceOnUse" x="0" y="0" width="133" height="98">
<path d="M133 0H0V97.2H133V0Z" fill="white"/>
</mask>
<g mask="url(#mask11_17_2695)">
<mask id="mask12_17_2695" style="mask-type:luminance" maskUnits="userSpaceOnUse" x="19" y="29" width="99" height="17">
<path d="M109.6 29.8C85.0999 30.3 56.7999 33.6 22.5999 41.8C21.2999 42.1 19.7 42.6 19.7 43.8C19.7 45.3 21.5999 45.4 23.5999 45.3C33.9999 45.1 47.6999 39.2 109.1 43.5C113.8 43.8 117.3 41.4 117.4 37.1C117.5 32.9 114.4 29.8 109.8 29.8C109.8 29.8 109.7 29.8 109.6 29.8Z" fill="white"/>
</mask>
<g mask="url(#mask12_17_2695)">
<path d="M117.5 29.8H19.7V45.3H117.5V29.8Z" fill="url(#paint2_linear_17_2695)"/>
</g>
</g>
<defs>
<linearGradient id="paint0_linear_17_2695" x1="29.2782" y1="40.5777" x2="96.1762" y2="40.5777" gradientUnits="userSpaceOnUse">
<stop stop-color="#1ACF10"/>
<stop offset="0.2944" stop-color="#1ACF10"/>
<stop offset="0.7078" stop-color="#2BD604"/>
<stop offset="0.8321" stop-color="#31D800"/>
<stop offset="1" stop-color="#31D800"/>
</linearGradient>
<linearGradient id="paint1_linear_17_2695" x1="19.75" y1="52.6157" x2="96.2605" y2="52.6157" gradientUnits="userSpaceOnUse">
<stop stop-color="#63E906"/>
<stop offset="0.4501" stop-color="#63E906"/>
<stop offset="0.9466" stop-color="#31D800"/>
<stop offset="1" stop-color="#31D800"/>
</linearGradient>
<linearGradient id="paint2_linear_17_2695" x1="19.7481" y1="37.54" x2="117.424" y2="37.54" gradientUnits="userSpaceOnUse">
<stop stop-color="#63E906"/>
<stop offset="0.3999" stop-color="#63E906"/>
<stop offset="0.9" stop-color="#AFF500"/>
<stop offset="1" stop-color="#AFF500"/>
</linearGradient>
</defs>
</svg>
